<?xml version="1.0" encoding="iso-8859-1"?>
<!-- Generator: Adobe Illustrator 19.0.0, SVG Export Plug-In . SVG Version: 6.00 Build 0)  -->
<svg version="1.1" id="Capa_1" xmlns="http://www.w3.org/2000/svg" xmlns:xlink="http://www.w3.org/1999/xlink" x="0px" y="0px"
	 viewBox="0 0 487.969 487.969" style="enable-background:new 0 0 487.969 487.969;" xml:space="preserve">
<g>
	<g>
		<ellipse cx="171.856" cy="215.848" rx="8" ry="8.12"/>
	</g>
</g>
<g>
	<g>
		<path d="M475.984,32.031H358.406c-43.938,0-60.766,27.82-73.062,48.141c-6.55,10.832-11.382,18.123-17.359,21.538V71.799
			c9.658-7.309,16-18.782,16-31.799c0-22.054-17.938-40-40-40c-22.062,0-40,17.946-40,40c0,13.017,6.342,24.49,16,31.799v29.943
			c-6.028-3.407-10.864-10.73-17.422-21.61c-12.234-20.297-29.016-48.102-73-48.102H11.984c0,26.526,6.985,48.289,34.328,59.062
			l-20.782,8.61c12.805,30.901,33.341,43.293,57.547,41.922l-10.406,10.406c27.251,27.251,59.665,27.006,82.25,11.203
			c14.328,15.43,41.062,16.313,56.547,1.875c2.483,2.766,5.414,5.071,8.516,7.132v105.205c-21.957-7.43-35.85-13.35-42.172-20.735
			c3.672-1.484,7.531-3.367,11.39-5.859c20-12.867,28.5-37.531,18.547-53.859c-6.969-11.446-20.953-15.836-36.484-11.461
			c-22.641,6.359-45.547,29.953-45.547,62.734c0,31.957,19.863,50.97,48.31,65.034c-16.474,12.298-25.919,28.841-25.919,47.466
			c0,24.647,16.134,45.309,44.297,57.911c-8.814,9.536-13.797,20.806-13.797,32.682c0,9.774,1.375,21.258,17.734,33.89
			c2.25,1.758,5.031,2.718,7.828,2.718c6.969,0,12.625-5.664,12.625-12.633c0-2.218-0.61-4.492-1.703-6.344
			c-3.438-5.922-2.969-8.961-2.328-10.726c0.97-2.645,3.49-5.266,7.218-7.911V456c0,13.234,10.766,24,24,24
			c13.234,0,24-10.766,24-24v-5.517c3.663,2.601,6.265,5.183,7.218,7.782c0.641,1.766,1.11,4.805-2.297,10.687
			c-1.125,1.914-1.75,4.18-1.75,6.383c0,6.969,5.672,12.633,12.641,12.633c2.75,0,5.516-0.946,7.797-2.695
			c16.39-12.672,17.766-24.149,17.766-33.914c0-11.862-5.149-23.026-13.982-32.546c28.302-12.608,44.482-33.346,44.482-58.048
			c0-18.593-9.341-35.147-25.808-47.429c28.425-14.068,48.198-33.123,48.198-65.071c0-32.782-22.906-56.375-45.547-62.734
			c-15.5-4.367-29.516,0.023-36.484,11.461c-9.953,16.328-1.469,40.992,18.531,53.859c3.875,2.492,7.734,4.375,11.406,5.859
			c-6.321,7.386-20.214,13.306-42.17,20.736V172.395c3.111-2.082,6.056-4.421,8.562-7.247c7.39,6.883,17.156,10.883,27.359,10.883
			c11.141,0,21.672-4.75,29.141-12.797c21.268,14.882,53.855,17.192,82.25-11.203l-10.406-10.406
			c23.802,1.161,44.463-10.348,57.547-41.922l-20.782-8.61C468.567,80.49,475.984,58.791,475.984,32.031z M212.594,134.906
			l-7.5,12.828c-4.375,7.469-12.625,12.297-21.031,12.297c-14.905,0-19.267-9.604-25.953-21.461l-7.454,7.446
			c-13.844,13.859-38.375,15.664-54.718,5.367l45.844-45.837c4.34,2.898,9.041,5.278,14.344,6.322
			c2.933,14.893,14.082,26.758,28.474,30.99l9.077-15.722c-11.795-1.178-21.067-11.034-21.067-23.134
			c0-4.766-3.859-8.633-8.625-8.633c-10.057,0-18.574-6.411-21.864-15.336h-17.898c2.014,9.978,7.938,18.317,15.798,24.204
			l-44.38,18.382c-18.246,7.564-38.313,0.562-48.469-14.562l67.656-28.023H74.61c-29.516,0-42.703-15.851-45.859-32h100.813
			c34.953,0,47.328,20.523,59.297,40.367c8.025,13.301,16.331,26.906,31.125,30.571v30.456
			C217.548,145.165,214.775,139.326,212.594,134.906z M141.719,248.266c0-24.562,17.453-42.718,33.875-47.328
			c1.703-0.484,4.422-1.086,7.344-1.086c4.062,0,8.531,1.172,11.156,5.469c4.828,7.922,0.062,23.328-13.562,32.086
			c-5.531,3.562-11.125,5.531-16.359,7.133l-7.359,2.25l1.969,7.453c4.902,18.468,22.921,27.248,59.221,39.392
			c-5.363,1.738-10.836,3.516-16.69,5.46c-3.764,1.28-7.299,2.755-10.711,4.323C161.643,291.01,141.719,275.234,141.719,248.266z
			 M251.984,456c0,4.414-3.594,8-8,8c-4.406,0-8-3.586-8-8v-14.296c4.747-2.131,10.195-4.323,16-6.563V456z M291.64,461.461
			c0.078-3-0.39-5.906-1.422-8.695c-2.97-8.12-10.753-14.571-22.234-20.74v-2.87c3.615-1.313,7.373-2.664,11.192-4.03
			c9.052,7.477,14.182,16.536,14.182,26.234C293.36,454.43,293.36,457.718,291.64,461.461z M323.86,360.766
			c0,28.305-29.562,41.946-42.282,46.5l-4.156,1.492c-45.61,16.305-73.141,26.156-79.672,44.008
			c-1.047,2.828-1.516,5.766-1.406,8.797c-1.734-3.703-1.734-6.984-1.734-10.203c0-14.008,10.359-26.844,28.344-35.172
			l54.375-24.242c17.875-7.844,30.531-14.672,30.531-31.18c0-10.914-12.031-22.054-30.703-28.398c-2.2-0.73-4.376-1.382-6.565-2.074
			c8.968-2.918,17.654-5.953,25.911-9.213C313.791,330.769,323.86,344.858,323.86,360.766z M219.984,378.586l-2.906-1.297
			c-20.969-9.187-20.969-12.43-20.984-16.367c0.344-1.89,5.641-8.57,19.797-13.383c1.372-0.456,2.721-0.846,4.094-1.294V378.586z
			 M235.984,392.858v-51.671c3.521-1.094,7.102-2.271,10.578-3.344c1.815-0.558,3.614-1.117,5.422-1.675v49.556L235.984,392.858z
			 M267.984,378.588v-32.339c1.358,0.429,2.715,0.837,4.078,1.29c14.047,4.766,19.39,11.383,19.797,13.328
			c0,4.054-0.172,7.313-21.016,16.446L267.984,378.588z M329.188,254.242l1.969-7.453l-7.359-2.25
			c-5.234-1.602-10.844-3.57-16.39-7.141c-13.594-8.758-18.359-24.156-13.531-32.078c2.625-4.297,7.094-5.469,11.156-5.469
			c2.922,0,5.641,0.602,7.344,1.086c16.422,4.61,33.875,22.766,33.875,47.328c0,42.141-48.375,57.039-104.39,74.289
			c-10.218,3.149-20.703,6.375-31.11,9.828c-18.61,6.328-30.641,17.469-30.641,28.383c0,16.508,12.656,23.336,30.484,31.156
			l9.39,4.19v3.884l-3.656,1.631c-3.614,1.673-6.92,3.578-10.071,5.588c-12.782-4.59-42.147-18.222-42.147-46.447
			c0-20.117,15.828-37.508,42.297-46.508c13.718-4.554,26.078-8.5,37.187-12.047C298.25,284.758,323.204,276.79,329.188,254.242z
			 M235.984,282.725V79.19c2.586,0.527,5.26,0.81,8,0.81s5.414-0.282,8-0.81v203.534c-2.539,0.817-5.297,1.698-8,2.562
			C241.281,284.423,238.524,283.542,235.984,282.725z M243.984,64c-13.234,0-24-10.766-24-24s10.766-24,24-24
			c13.234,0,24,10.766,24,24S257.219,64,243.984,64z M392.328,122.617L347.6,104.09c7.758-5.884,13.606-14.164,15.603-24.059
			h-17.898c-3.291,8.925-11.808,15.336-21.864,15.336c-4.766,0-8.625,3.867-8.625,8.633c0,12.101-9.273,21.956-21.067,23.134
			l9.077,15.722c14.393-4.23,25.542-16.097,28.474-30.99c5.434-1.07,10.236-3.542,14.654-6.553l46.076,46.068
			c-16.328,10.297-40.859,8.477-54.718-5.367l-7.453-7.446c-6.686,11.857-11.048,21.461-25.953,21.461
			c-8.406,0-16.656-4.828-21.031-12.297l-7.5-12.828c-2.118,4.29-5.013,10.375-7.39,14.526v-30.474
			c14.703-3.676,23.016-17.243,31.047-30.506c12.031-19.875,24.453-40.422,59.375-40.422H459.22
			c-3.158,16.15-16.346,32.001-45.861,32.001h-40.218l67.656,28.023C430.641,123.179,410.574,130.181,392.328,122.617z"/>
	</g>
</g>
<g>
	<g>
		<ellipse cx="316.144" cy="215.848" rx="8" ry="8.12"/>
	</g>
</g>
<g>
</g>
<g>
</g>
<g>
</g>
<g>
</g>
<g>
</g>
<g>
</g>
<g>
</g>
<g>
</g>
<g>
</g>
<g>
</g>
<g>
</g>
<g>
</g>
<g>
</g>
<g>
</g>
<g>
</g>
</svg>
